:FULLY-SPECIFIED
:FORCE-ALL-JOINTS-BE-3DOF
:DEGREES
204
root -2.899 16.313 -36.1133 3.77484 0.667583 -2.92055
lfemur -23.9078 6.72415 -8.18106
ltibia 48.6712 -0 0
lfoot -23.8089 0.40136 3.29628e-05
ltoes -9.80341 0 0
rfemur -23.8513 -7.55903 14.6501
rtibia 50.7447 -0 0
rfoot -27.6403 2.05654 -4.13245e-05
rtoes -8.30249 0 0
lowerback 7.29005 1.95442 -1.69329
upperback -3.75016 2.53978 1.30244
thorax -8.18704 1.37421 1.96183
lowerneck -3.43762 -3.91739 -6.54175
upperneck 6.90277 -5.28865 6.02505
head 3.25402 -2.60349 2.95854
lclavicle -1.26127e-14 -4.17448e-15 0
lhumerus -26.5648 -1.83952 88.7747
lradius 24.2966 -0 0
lwrist -31.3967 0 0
lhand -28.2287 30.095 2.68383e-05
lfingers 7.12502 -0 0
lthumb -1.60679 60.0687 2.58572e-05
rclavicle -1.26127e-14 -4.17448e-15 0
rhumerus -32.2314 1.97459 -79.9033
rradius 30.4288 -0 0
rwrist 3.14634 0 0
rhand -20.092 -26.8065 2.08221e-05
rfingers 7.12502 -0 0
rthumb 6.25096 -56.6943 1.97892e-05
205
root -2.90019 16.3091 -36.112 3.77182 0.668491 -2.92277
lfemur -23.9076 6.72713 -8.17517
ltibia 48.6799 -0 0
lfoot -23.8138 0.39951 1.64269e-05
ltoes -9.81119 0 0
rfemur -23.8511 -7.56524 14.6543
rtibia 50.7544 -0 0
rfoot -27.6467 2.06226 -1.76433e-05
rtoes -8.29949 0 0
lowerback 7.29062 1.95408 -1.69442
upperback -3.74888 2.53922 1.30306
thorax -8.18605 1.374 1.9632
lowerneck -3.43724 -3.91872 -6.54089
upperneck 6.90457 -5.29057 6.02499
head 3.25469 -2.60443 2.95828
lclavicle -1.26127e-14 -4.17448e-15 0
lhumerus -26.5567 -1.86452 88.7844
lradius 24.3072 -0 0
lwrist -31.3854 0 0
lhand -28.229 30.1047 1.35435e-05
lfingers 7.12502 -0 0
lthumb -1.60713 60.0785 1.30474e-05
rclavicle -1.26127e-14 -4.17448e-15 0
rhumerus -32.2251 1.98923 -79.9211
rradius 30.4425 -0 0
rwrist 3.13523 0 0
rhand -20.0874 -26.8138 1.04319e-05
rfingers 7.12502 -0 0
rthumb 6.25542 -56.7014 9.91473e-06
206
root -2.90138 16.305 -36.1106 3.76868 0.66911 -2.9246
lfemur -23.9054 6.72898 -8.17025
ltibia 48.6848 0 0
lfoot -23.8168 0.397708 0
ltoes -9.81773 0 0
rfemur -23.8493 -7.56976 14.6577
rtibia 50.7605 0 0
rfoot -27.6509 2.06737 0
rtoes -8.29546 0 0
lowerback 7.29131 1.95374 -1.69565
upperback -3.74773 2.53866 1.30361
thorax -8.18527 1.37379 1.96455
lowerneck -3.43602 -3.91994 -6.54011
upperneck 6.9053 -5.29236 6.02499
head 3.25484 -2.60532 2.95808
lclavicle -1.30647e-14 4.96962e-16 0
lhumerus -26.5489 -1.89002 88.794
lradius 24.3179 0 0
lwrist -31.374 0 0
lhand -28.2296 30.1145 0
lfingers 7.12502 0 0
lthumb -1.6077 60.0882 0
rclavicle -1.30647e-14 4.96962e-16 0
rhumerus -32.2196 2.00376 -79.9386
rradius 30.4557 0 0
rwrist 3.12415 0 0
rhand -20.0827 -26.8213 0
rfingers 7.12502 0 0
rthumb 6.25995 -56.7088 0
207
root -2.90278 16.3012 -36.1088 3.7643 0.668442 -2.92478
lfemur -23.917 6.73678 -8.16611
ltibia 48.7224 -0 0
lfoot -23.8367 0.400557 -2.65027e-05
ltoes -9.83303 0 0
rfemur -23.8617 -7.58496 14.658
rtibia 50.7986 -0 0
rfoot -27.672 2.07662 1.00478e-05
rtoes -8.29926 0 0
lowerback 7.29638 1.95351 -1.69615
upperback -3.7446 2.53832 1.30498
thorax -8.18492 1.37365 1.96623
lowerneck -3.47072 -3.8903 -6.50649
upperneck 6.9365 -5.2512 5.99124
head 3.26762 -2.58462 2.94253
lclavicle -1.30647e-14 4.96962e-16 0
lhumerus -26.5486 -1.89655 88.7985
lradius 24.322 -0 0
lwrist -31.3626 0 0
lhand -28.2286 30.1208 -2.09529e-06
lfingers 7.12502 -0 0
lthumb -1.60676 60.0946 -2.02892e-06
rclavicle -1.30647e-14 4.96962e-16 0
rhumerus -32.2121 2.0052 -79.9367
rradius 30.4589 -0 0
rwrist 3.12781 0 0
rhand -20.0773 -26.8168 1.72908e-05
rfingers 7.12502 -0 0
rthumb 6.26513 -56.7041 1.70627e-05
208
root -2.9046 16.2982 -36.1061 3.75938 0.667397 -2.92455
lfemur -23.9284 6.74449 -8.16255
ltibia 48.7612 -0 0
lfoot -23.8572 0.403901 -5.43239e-05
ltoes -9.84889 0 0
rfemur -23.8743 -7.60039 14.6574
rtibia 50.838 -0 0
rfoot -27.6936 2.08629 1.7959e-05
rtoes -8.3028 0 0
lowerback 7.30218 1.95327 -1.69676
upperback -3.74123 2.53795 1.30645
thorax -8.18475 1.37351 1.96805
lowerneck -3.5092 -3.85663 -6.46864
upperneck 6.97072 -5.20447 5.9532
head 3.28156 -2.56113 2.92503
lclavicle -1.30647e-14 4.96962e-16 0
lhumerus -26.549 -1.90323 88.803
lradius 24.3262 -0 0
lwrist -31.3501 0 0
lhand -28.2277 30.1276 -4.23022e-06
lfingers 7.12502 -0 0
lthumb -1.60587 60.1013 -4.09593e-06
rclavicle -1.30647e-14 4.96962e-16 0
rhumerus -32.2045 2.00605 -79.9335
rradius 30.4614 -0 0
rwrist 3.13249 0 0
rhand -20.0714 -26.8115 3.61971e-05
rfingers 7.12502 -0 0
rthumb 6.27084 -56.6987 3.57193e-05
209
root -2.9068 16.296 -36.1026 3.75395 0.665991 -2.92392
lfemur -23.9397 6.7521 -8.15954
ltibia 48.801 -0 0
lfoot -23.8782 0.407717 -8.30166e-05
ltoes -9.86526 0 0
rfemur -23.8871 -7.61602 14.6561
rtibia 50.8787 -0 0
rfoot -27.7158 2.09633 2.42845e-05
rtoes -8.30608 0 0
lowerback 7.30867 1.95303 -1.69747
upperback -3.73765 2.53757 1.308
thorax -8.18476 1.37336 1.97
lowerneck -3.55124 -3.81914 -6.42678
upperneck 7.00778 -5.15245 5.91109
head 3.29661 -2.53501 2.90566
lclavicle -1.30647e-14 4.96962e-16 0
lhumerus -26.5499 -1.91005 88.8077
lradius 24.3307 -0 0
lwrist -31.3365 0 0
lhand -28.2269 30.1347 -6.40147e-06
lfingers 7.12502 -0 0
lthumb -1.60505 60.1084 -6.19781e-06
rclavicle -1.30647e-14 4.96962e-16 0
rhumerus -32.1968 2.00634 -79.9291
rradius 30.4633 -0 0
rwrist 3.13813 0 0
rhand -20.065 -26.8055 5.64205e-05
rfingers 7.12502 -0 0
rthumb 6.27705 -56.6924 5.56746e-05
210
root -2.90934 16.2946 -36.0985 3.74804 0.664238 -2.92291
lfemur -23.9509 6.75959 -8.15707
ltibia 48.8417 -0 0
lfoot -23.8998 0.411982 -0.000112144
ltoes -9.88208 0 0
rfemur -23.9 -7.63181 14.654
rtibia 50.9204 -0 0
rfoot -27.7385 2.10672 2.95403e-05
rtoes -8.3091 0 0
lowerback 7.31582 1.95279 -1.69828
upperback -3.73386 2.53718 1.30963
thorax -8.18495 1.37321 1.97208
lowerneck -3.59663 -3.77802 -6.38113
upperneck 7.04749 -5.09541 5.86515
head 3.31267 -2.50638 2.88455
lclavicle -1.30647e-14 4.96962e-16 0
lhumerus -26.5515 -1.91697 88.8126
lradius 24.3354 -0 0
lwrist -31.3219 0 0
lhand -28.2261 30.1421 -8.60384e-06
lfingers 7.12502 -0 0
lthumb -1.60428 60.1158 -8.3295e-06
rclavicle -1.30647e-14 4.96962e-16 0
rhumerus -32.1892 2.00608 -79.9235
rradius 30.4645 -0 0
rwrist 3.1447 0 0
rhand -20.0581 -26.7987 7.76566e-05
rfingers 7.12502 -0 0
rthumb 6.28373 -56.6855 7.66273e-05
